<?xml version="1.0" encoding="UTF-8"?>
<svg clip-rule="evenodd" stroke-linecap="round" stroke-linejoin="round" stroke-miterlimit="10" version="1.1" viewBox="0 0 228.23 120" xml:space="preserve" xmlns="http://www.w3.org/2000/svg">

<g fill="none" stroke="#000" stroke-linecap="square" stroke-linejoin="miter" stroke-width="6"><path d="m120 20v80"/><path d="m80 60h40"/><path d="m60 100v-80"/><path d="m20 20h80"/></g>
<g><path d="m142.15 95.944h-2.796v1.512h2.64v1.992h-2.64v1.5598h2.796v1.992h-5.148v-9.0478h5.148z"/><path d="m143.64 96.844h2.172v0.78c0.296-0.36 0.596-0.602 0.9-0.726s0.66-0.186 1.068-0.186c0.432 0 0.802 0.07 1.11 0.21s0.57 0.338 0.786 0.594c0.176 0.208 0.296 0.44 0.36 0.696s0.096 0.548 0.096 0.876v3.9118h-2.172v-3.1078c0-0.304-0.022-0.55-0.066-0.738s-0.122-0.338-0.234-0.45c-0.096-0.096-0.204-0.164-0.324-0.204s-0.248-0.06-0.384-0.06c-0.368 0-0.65 0.11-0.846 0.33s-0.294 0.534-0.294 0.942v3.2878h-2.172z"/><path d="m153.62 99.892c0 0.1998 0.036 0.3858 0.108 0.5578s0.17 0.322 0.294 0.45 0.272 0.228 0.444 0.3 0.358 0.108 0.558 0.108c0.192 0 0.374-0.036 0.546-0.108s0.32-0.172 0.444-0.3 0.224-0.278 0.3-0.45 0.114-0.354 0.114-0.5458c0-0.2-0.038-0.384-0.114-0.552s-0.178-0.316-0.306-0.444-0.278-0.228-0.45-0.3-0.35-0.108-0.534-0.108c-0.192 0-0.372 0.038-0.54 0.114s-0.316 0.176-0.444 0.3-0.23 0.27-0.306 0.438-0.114 0.348-0.114 0.54zm4.872-3.048v5.7358c0 0.344-0.02 0.652-0.06 0.924s-0.096 0.512-0.168 0.72c-0.096 0.264-0.246 0.51-0.45 0.738s-0.45 0.426-0.738 0.594-0.614 0.3-0.978 0.396-0.758 0.144-1.182 0.144c-0.48 0-0.92-0.06-1.32-0.18s-0.75-0.286-1.05-0.498-0.546-0.46-0.738-0.744-0.32-0.594-0.384-0.93h2.448c0.152 0.408 0.496 0.612 1.032 0.612 0.456 0 0.806-0.128 1.05-0.384s0.366-0.612 0.366-1.068v-0.588c-0.16 0.152-0.314 0.278-0.462 0.378s-0.298 0.182-0.45 0.246-0.312 0.11-0.48 0.138-0.352 0.042-0.552 0.042c-0.44 0-0.844-0.076-1.212-0.228s-0.686-0.364-0.954-0.636-0.476-0.598-0.624-0.978-0.222-0.802-0.222-1.2658c0-0.472 0.08-0.91 0.24-1.314s0.378-0.756 0.654-1.056 0.604-0.536 0.984-0.708 0.794-0.258 1.242-0.258c0.728 0 1.34 0.272 1.836 0.816v-0.648z"/><path d="m162.14 96.844v6.1558h-2.172v-6.1558zm-2.316-2.364c0-0.168 0.032-0.326 0.096-0.474s0.152-0.278 0.264-0.39 0.242-0.2 0.39-0.264 0.306-0.096 0.474-0.096 0.326 0.032 0.474 0.096 0.278 0.152 0.39 0.264 0.2 0.242 0.264 0.39 0.096 0.306 0.096 0.474-0.032 0.326-0.096 0.474-0.152 0.278-0.264 0.39-0.242 0.2-0.39 0.264-0.306 0.096-0.474 0.096-0.326-0.032-0.474-0.096-0.278-0.152-0.39-0.264-0.2-0.242-0.264-0.39-0.096-0.306-0.096-0.474z"/><path d="m163.63 96.844h2.172v0.78c0.296-0.36 0.596-0.602 0.9-0.726s0.66-0.186 1.068-0.186c0.432 0 0.802 0.07 1.11 0.21s0.57 0.338 0.786 0.594c0.176 0.208 0.296 0.44 0.36 0.696s0.096 0.548 0.096 0.876v3.9118h-2.172v-3.1078c0-0.304-0.022-0.55-0.066-0.738s-0.122-0.338-0.234-0.45c-0.096-0.096-0.204-0.164-0.324-0.204s-0.248-0.06-0.384-0.06c-0.368 0-0.65 0.11-0.846 0.33s-0.294 0.534-0.294 0.942v3.2878h-2.172z"/><path d="m176.1 99.028c-0.072-0.304-0.22-0.548-0.444-0.732s-0.496-0.276-0.816-0.276c-0.336 0-0.61 0.088-0.822 0.264s-0.346 0.424-0.402 0.744zm-2.544 1.2598c0 0.936 0.44 1.404 1.32 1.404 0.472 0 0.828-0.192 1.068-0.576h2.1c-0.424 1.408-1.484 2.112-3.18 2.112-0.52 0-0.996-0.078-1.428-0.234s-0.802-0.378-1.11-0.666-0.546-0.632-0.714-1.032-0.252-0.848-0.252-1.3438c0-0.512 0.08-0.974 0.24-1.386s0.388-0.762 0.684-1.05 0.654-0.51 1.074-0.666 0.894-0.234 1.422-0.234c0.52 0 0.988 0.078 1.404 0.234s0.768 0.382 1.056 0.678 0.508 0.658 0.66 1.086 0.228 0.91 0.228 1.4458v0.228z"/><path d="m183.86 99.028c-0.072-0.304-0.22-0.548-0.444-0.732s-0.496-0.276-0.816-0.276c-0.336 0-0.61 0.088-0.822 0.264s-0.346 0.424-0.402 0.744zm-2.544 1.2598c0 0.936 0.44 1.404 1.32 1.404 0.472 0 0.828-0.192 1.068-0.576h2.1c-0.424 1.408-1.484 2.112-3.18 2.112-0.52 0-0.996-0.078-1.428-0.234s-0.802-0.378-1.11-0.666-0.546-0.632-0.714-1.032-0.252-0.848-0.252-1.3438c0-0.512 0.08-0.974 0.24-1.386s0.388-0.762 0.684-1.05 0.654-0.51 1.074-0.666 0.894-0.234 1.422-0.234c0.52 0 0.988 0.078 1.404 0.234s0.768 0.382 1.056 0.678 0.508 0.658 0.66 1.086 0.228 0.91 0.228 1.4458v0.228z"/><path d="m187.12 96.844h2.172v1.008c0.232-0.368 0.516-0.65 0.852-0.846s0.728-0.294 1.176-0.294h0.186c0.068 0 0.146 8e-3 0.234 0.024v2.076c-0.288-0.144-0.6-0.216-0.936-0.216-0.504 0-0.882 0.15-1.134 0.45s-0.378 0.738-0.378 1.3138v2.64h-2.172z"/><path d="m194.89 96.844v6.1558h-2.172v-6.1558zm-2.316-2.364c0-0.168 0.032-0.326 0.096-0.474s0.152-0.278 0.264-0.39 0.242-0.2 0.39-0.264 0.306-0.096 0.474-0.096 0.326 0.032 0.474 0.096 0.278 0.152 0.39 0.264 0.2 0.242 0.264 0.39 0.096 0.306 0.096 0.474-0.032 0.326-0.096 0.474-0.152 0.278-0.264 0.39-0.242 0.2-0.39 0.264-0.306 0.096-0.474 0.096-0.326-0.032-0.474-0.096-0.278-0.152-0.39-0.264-0.2-0.242-0.264-0.39-0.096-0.306-0.096-0.474z"/><path d="m196.38 96.844h2.172v0.78c0.296-0.36 0.596-0.602 0.9-0.726s0.66-0.186 1.068-0.186c0.432 0 0.802 0.07 1.11 0.21s0.57 0.338 0.786 0.594c0.176 0.208 0.296 0.44 0.36 0.696s0.096 0.548 0.096 0.876v3.9118h-2.172v-3.1078c0-0.304-0.022-0.55-0.066-0.738s-0.122-0.338-0.234-0.45c-0.096-0.096-0.204-0.164-0.324-0.204s-0.248-0.06-0.384-0.06c-0.368 0-0.65 0.11-0.846 0.33s-0.294 0.534-0.294 0.942v3.2878h-2.172z"/><path d="m206.36 99.892c0 0.1998 0.036 0.3858 0.108 0.5578s0.17 0.322 0.294 0.45 0.272 0.228 0.444 0.3 0.358 0.108 0.558 0.108c0.192 0 0.374-0.036 0.546-0.108s0.32-0.172 0.444-0.3 0.224-0.278 0.3-0.45 0.114-0.354 0.114-0.5458c0-0.2-0.038-0.384-0.114-0.552s-0.178-0.316-0.306-0.444-0.278-0.228-0.45-0.3-0.35-0.108-0.534-0.108c-0.192 0-0.372 0.038-0.54 0.114s-0.316 0.176-0.444 0.3-0.23 0.27-0.306 0.438-0.114 0.348-0.114 0.54zm4.872-3.048v5.7358c0 0.344-0.02 0.652-0.06 0.924s-0.096 0.512-0.168 0.72c-0.096 0.264-0.246 0.51-0.45 0.738s-0.45 0.426-0.738 0.594-0.614 0.3-0.978 0.396-0.758 0.144-1.182 0.144c-0.48 0-0.92-0.06-1.32-0.18s-0.75-0.286-1.05-0.498-0.546-0.46-0.738-0.744-0.32-0.594-0.384-0.93h2.448c0.152 0.408 0.496 0.612 1.032 0.612 0.456 0 0.806-0.128 1.05-0.384s0.366-0.612 0.366-1.068v-0.588c-0.16 0.152-0.314 0.278-0.462 0.378s-0.298 0.182-0.45 0.246-0.312 0.11-0.48 0.138-0.352 0.042-0.552 0.042c-0.44 0-0.844-0.076-1.212-0.228s-0.686-0.364-0.954-0.636-0.476-0.598-0.624-0.978-0.222-0.802-0.222-1.2658c0-0.472 0.08-0.91 0.24-1.314s0.378-0.756 0.654-1.056 0.604-0.536 0.984-0.708 0.794-0.258 1.242-0.258c0.728 0 1.34 0.272 1.836 0.816v-0.648z"/><path d="m139.35 59.036h3.396v-3.492h2.352v9.048h-2.352v-3.732h-3.396v3.732h-2.352v-9.048h2.352z"/><path d="m148.84 61.484c0 0.208 0.038 0.398 0.114 0.57s0.176 0.322 0.3 0.45 0.272 0.228 0.444 0.3 0.354 0.108 0.546 0.108 0.374-0.036 0.546-0.108 0.32-0.172 0.444-0.3 0.224-0.278 0.3-0.45 0.114-0.358 0.114-0.558c0-0.192-0.038-0.374-0.114-0.546s-0.176-0.322-0.3-0.45-0.272-0.228-0.444-0.3-0.354-0.108-0.546-0.108-0.374 0.036-0.546 0.108-0.32 0.172-0.444 0.3-0.224 0.276-0.3 0.444-0.114 0.348-0.114 0.54zm-2.292-0.024c0-0.456 0.092-0.882 0.276-1.278s0.44-0.74 0.768-1.032 0.718-0.522 1.17-0.69 0.946-0.252 1.482-0.252c0.528 0 1.018 0.082 1.47 0.246s0.844 0.392 1.176 0.684 0.59 0.64 0.774 1.044 0.276 0.85 0.276 1.338-0.094 0.934-0.282 1.338-0.446 0.752-0.774 1.044-0.722 0.518-1.182 0.678-0.958 0.24-1.494 0.24c-0.528 0-1.016-0.08-1.464-0.24s-0.834-0.388-1.158-0.684-0.578-0.65-0.762-1.062-0.276-0.87-0.276-1.374z"/><path d="m157.54 60.248v4.344h-2.172v-4.344h-0.78v-1.812h0.78v-0.924c0-0.512 0.048-0.92 0.144-1.224 0.08-0.256 0.208-0.494 0.384-0.714s0.382-0.41 0.618-0.57 0.49-0.284 0.762-0.372 0.54-0.132 0.804-0.132c0.184 0 0.354 0.02 0.51 0.06s0.314 0.096 0.474 0.168v1.896c-0.144-0.072-0.278-0.126-0.402-0.162s-0.254-0.054-0.39-0.054c-0.088 0-0.178 0.014-0.27 0.042s-0.178 0.086-0.258 0.174-0.134 0.214-0.162 0.378-0.042 0.386-0.042 0.666v0.768h1.524v1.812z"/><path d="m162.63 60.248v4.344h-2.172v-4.344h-0.78v-1.812h0.78v-0.924c0-0.512 0.048-0.92 0.144-1.224 0.08-0.256 0.208-0.494 0.384-0.714s0.382-0.41 0.618-0.57 0.49-0.284 0.762-0.372 0.54-0.132 0.804-0.132c0.184 0 0.354 0.02 0.51 0.06s0.314 0.096 0.474 0.168v1.896c-0.144-0.072-0.278-0.126-0.402-0.162s-0.254-0.054-0.39-0.054c-0.088 0-0.178 0.014-0.27 0.042s-0.178 0.086-0.258 0.174-0.134 0.214-0.162 0.378-0.042 0.386-0.042 0.666v0.768h1.524v1.812z"/><path d="m164.97 58.436h2.172v0.756c0.592-0.568 1.256-0.852 1.992-0.852 0.912 0 1.608 0.384 2.088 1.152 0.488-0.776 1.184-1.164 2.088-1.164 0.288 0 0.56 0.042 0.816 0.126s0.476 0.216 0.66 0.396 0.33 0.414 0.438 0.702 0.162 0.636 0.162 1.044v3.996h-2.172v-3.036c0-0.312-0.022-0.568-0.066-0.768s-0.108-0.356-0.192-0.468-0.182-0.188-0.294-0.228-0.232-0.06-0.36-0.06c-0.696 0-1.044 0.508-1.044 1.524v3.036h-2.172v-3.036c0-0.312-0.02-0.57-0.06-0.774s-0.098-0.366-0.174-0.486-0.174-0.202-0.294-0.246-0.26-0.066-0.42-0.066c-0.136 0-0.264 0.02-0.384 0.06s-0.226 0.118-0.318 0.234-0.164 0.276-0.216 0.48-0.078 0.47-0.078 0.798v3.036h-2.172z"/><path d="m178.89 61.496c0 0.2 0.036 0.386 0.108 0.558s0.17 0.322 0.294 0.45 0.272 0.228 0.444 0.3 0.358 0.108 0.558 0.108c0.192 0 0.374-0.036 0.546-0.108s0.32-0.172 0.444-0.3 0.224-0.276 0.3-0.444 0.114-0.348 0.114-0.54-0.038-0.374-0.114-0.546-0.176-0.322-0.3-0.45-0.272-0.228-0.444-0.3-0.354-0.108-0.546-0.108c-0.2 0-0.386 0.036-0.558 0.108s-0.32 0.172-0.444 0.3-0.222 0.274-0.294 0.438-0.108 0.342-0.108 0.534zm2.736-3.06h2.184v6.156h-2.184v-0.684c-0.464 0.584-1.092 0.876-1.884 0.876-0.448 0-0.86-0.082-1.236-0.246s-0.704-0.394-0.984-0.69-0.498-0.644-0.654-1.044-0.234-0.836-0.234-1.308c0-0.44 0.076-0.858 0.228-1.254s0.364-0.742 0.636-1.038 0.596-0.53 0.972-0.702 0.792-0.258 1.248-0.258c0.768 0 1.404 0.268 1.908 0.804z"/><path d="m185.29 58.436h2.172v0.78c0.296-0.36 0.596-0.602 0.9-0.726s0.66-0.186 1.068-0.186c0.432 0 0.802 0.07 1.11 0.21s0.57 0.338 0.786 0.594c0.176 0.208 0.296 0.44 0.36 0.696s0.096 0.548 0.096 0.876v3.912h-2.172v-3.108c0-0.304-0.022-0.55-0.066-0.738s-0.122-0.338-0.234-0.45c-0.096-0.096-0.204-0.164-0.324-0.204s-0.248-0.06-0.384-0.06c-0.368 0-0.65 0.11-0.846 0.33s-0.294 0.534-0.294 0.942v3.288h-2.172z"/><path d="m193.26 58.436h2.172v0.78c0.296-0.36 0.596-0.602 0.9-0.726s0.66-0.186 1.068-0.186c0.432 0 0.802 0.07 1.11 0.21s0.57 0.338 0.786 0.594c0.176 0.208 0.296 0.44 0.36 0.696s0.096 0.548 0.096 0.876v3.912h-2.172v-3.108c0-0.304-0.022-0.55-0.066-0.738s-0.122-0.338-0.234-0.45c-0.096-0.096-0.204-0.164-0.324-0.204s-0.248-0.06-0.384-0.06c-0.368 0-0.65 0.11-0.846 0.33s-0.294 0.534-0.294 0.942v3.288h-2.172z"/><path d="m140.43 18.992v7.056h-2.352v-7.056h-1.932v-1.992h6.216v1.992z"/><path d="m144.81 22.94c0 0.2081 0.038 0.398 0.114 0.57 0.076 0.1721 0.176 0.322 0.3 0.45 0.124 0.1281 0.272 0.228 0.444 0.3 0.172 0.0721 0.354 0.108 0.546 0.108s0.374-0.0359 0.546-0.108c0.172-0.072 0.32-0.1719 0.444-0.3 0.124-0.128 0.224-0.2779 0.3-0.45 0.076-0.172 0.114-0.3579 0.114-0.558 0-0.192-0.038-0.3739-0.114-0.546-0.076-0.172-0.176-0.3219-0.3-0.45-0.124-0.128-0.272-0.2279-0.444-0.3-0.172-0.072-0.354-0.108-0.546-0.108s-0.374 0.036-0.546 0.108c-0.172 0.0721-0.32 0.172-0.444 0.3-0.124 0.1281-0.224 0.276-0.3 0.444-0.076 0.1681-0.114 0.348-0.114 0.54zm-2.292-0.0239c0-0.4561 0.092-0.882 0.276-1.2781 0.184-0.396 0.44-0.7399 0.768-1.032 0.328-0.292 0.718-0.5219 1.17-0.69 0.452-0.168 0.946-0.252 1.482-0.252 0.528 0 1.018 0.082 1.47 0.246 0.452 0.1641 0.844 0.392 1.176 0.684 0.332 0.2921 0.59 0.64 0.774 1.044 0.184 0.4041 0.276 0.85 0.276 1.338 0 0.4881-0.094 0.934-0.282 1.338-0.188 0.4041-0.446 0.752-0.774 1.0441-0.328 0.292-0.722 0.5179-1.182 0.6779-0.46 0.1601-0.958 0.24-1.494 0.24-0.528 0-1.016-0.0799-1.464-0.24-0.448-0.16-0.834-0.3879-1.158-0.6839-0.324-0.2961-0.578-0.65-0.762-1.0621-0.184-0.412-0.276-0.8699-0.276-1.3739z"/><path d="m156.07 22.988c0-0.192-0.036-0.3739-0.108-0.546-0.072-0.172-0.172-0.3219-0.3-0.45-0.128-0.128-0.276-0.2299-0.444-0.306-0.168-0.076-0.352-0.114-0.552-0.114-0.192 0-0.372 0.036-0.54 0.108-0.168 0.0721-0.314 0.172-0.438 0.3-0.124 0.1281-0.224 0.278-0.3 0.45-0.076 0.1721-0.114 0.354-0.114 0.546 0 0.1921 0.036 0.372 0.108 0.54 0.072 0.1681 0.172 0.314 0.3 0.438 0.128 0.1241 0.278 0.224 0.45 0.3 0.172 0.0761 0.354 0.114 0.546 0.114s0.372-0.0359 0.54-0.108c0.168-0.072 0.314-0.1719 0.438-0.3 0.124-0.128 0.224-0.2759 0.3-0.444 0.076-0.168 0.114-0.3439 0.114-0.528zm-2.736-6.9v4.416c0.512-0.536 1.152-0.804 1.92-0.804 0.456 0 0.874 0.086 1.254 0.258 0.38 0.1721 0.704 0.404 0.972 0.696 0.268 0.2921 0.478 0.636 0.63 1.032 0.152 0.3961 0.228 0.818 0.228 1.266 0 0.4561-0.078 0.884-0.234 1.2841-0.156 0.4-0.374 0.7479-0.654 1.0439-0.28 0.2961-0.61 0.53-0.99 0.702-0.38 0.1721-0.79 0.258-1.23 0.258-0.8 0-1.432-0.2919-1.896-0.8759v0.6839h-2.172v-9.96z"/><path d="m161.74 19.892v6.156h-2.172v-6.156zm-2.316-2.364c0-0.168 0.032-0.3259 0.096-0.474 0.064-0.148 0.152-0.2779 0.264-0.39 0.112-0.112 0.242-0.1999 0.39-0.264 0.148-0.064 0.306-0.096 0.474-0.096s0.326 0.032 0.474 0.096c0.148 0.0641 0.278 0.152 0.39 0.264 0.112 0.1121 0.2 0.242 0.264 0.39 0.064 0.1481 0.096 0.306 0.096 0.474 0 0.1681-0.032 0.326-0.096 0.474-0.064 0.1481-0.152 0.278-0.264 0.39-0.112 0.1121-0.242 0.2-0.39 0.264-0.148 0.0641-0.306 0.096-0.474 0.096s-0.326-0.0319-0.474-0.096c-0.148-0.064-0.278-0.1519-0.39-0.264-0.112-0.112-0.2-0.2419-0.264-0.39-0.064-0.148-0.096-0.3059-0.096-0.474z"/><path d="m165.25 22.952c0 0.2001 0.036 0.386 0.108 0.558 0.072 0.1721 0.17 0.322 0.294 0.45 0.124 0.1281 0.272 0.228 0.444 0.3 0.172 0.0721 0.358 0.108 0.558 0.108 0.192 0 0.374-0.0359 0.546-0.108 0.172-0.072 0.32-0.1719 0.444-0.3 0.124-0.128 0.224-0.2759 0.3-0.444 0.076-0.168 0.114-0.3479 0.114-0.54 0-0.192-0.038-0.3739-0.114-0.546-0.076-0.172-0.176-0.3219-0.3-0.45-0.124-0.128-0.272-0.2279-0.444-0.3-0.172-0.072-0.354-0.108-0.546-0.108-0.2 0-0.386 0.036-0.558 0.108-0.172 0.0721-0.32 0.172-0.444 0.3-0.124 0.1281-0.222 0.274-0.294 0.438-0.072 0.1641-0.108 0.342-0.108 0.534zm2.736-3.06h2.184v6.156h-2.184v-0.6839c-0.464 0.584-1.092 0.8759-1.884 0.8759-0.448 0-0.86-0.0819-1.236-0.246-0.376-0.164-0.704-0.3939-0.984-0.69-0.28-0.296-0.498-0.6439-0.654-1.044-0.156-0.4-0.234-0.8359-0.234-1.308 0-0.44 0.076-0.8579 0.228-1.254 0.152-0.396 0.364-0.7419 0.636-1.038 0.272-0.296 0.596-0.5299 0.972-0.702 0.376-0.172 0.792-0.258 1.248-0.258 0.768 0 1.404 0.268 1.908 0.804z"/><path d="m175.72 21.476c-0.4-0.208-0.792-0.312-1.176-0.312-0.2 0-0.362 0.04-0.486 0.12-0.124 0.0801-0.186 0.188-0.186 0.324 0 0.0721 0.01 0.13 0.03 0.174 0.02 0.0441 0.064 0.086 0.132 0.126 0.068 0.0401 0.168 0.076 0.3 0.108 0.132 0.0321 0.306 0.072 0.522 0.12 0.6 0.1201 1.048 0.334 1.344 0.642 0.296 0.3081 0.444 0.702 0.444 1.182 0 0.3601-0.072 0.684-0.216 0.972-0.144 0.2881-0.344 0.53-0.6 0.726-0.256 0.1961-0.564 0.348-0.924 0.4561-0.36 0.108-0.756 0.1619-1.188 0.1619-0.832 0-1.652-0.2359-2.46-0.708l0.792-1.536c0.608 0.4161 1.184 0.624 1.728 0.624 0.2 0 0.364-0.0439 0.492-0.132 0.128-0.088 0.192-0.1999 0.192-0.336 0-0.08-0.01-0.1459-0.03-0.198-0.02-0.052-0.062-0.0999-0.126-0.144-0.064-0.044-0.158-0.0839-0.282-0.12-0.124-0.036-0.286-0.0739-0.486-0.114-0.672-0.136-1.142-0.3379-1.41-0.606-0.268-0.268-0.402-0.6379-0.402-1.11 0-0.344 0.064-0.6539 0.192-0.93 0.128-0.276 0.312-0.5099 0.552-0.702 0.24-0.192 0.53-0.3399 0.87-0.444 0.34-0.104 0.718-0.156 1.134-0.156 0.68 0 1.34 0.132 1.98 0.396z"/></g>
<g id="E" display="none" fill="none" stroke="#c0c0c0" stroke-linecap="square" stroke-linejoin="miter" stroke-width="6" visibility="hidden">
<path d="m140 100h40"/>
<path d="m140 60h40"/>
<path d="m140 20h40"/>
</g>
</svg>
